<mxfile host="app.diagrams.net" modified="2024-04-03T08:59:18.617Z" agent="Mozilla/5.0 (Macintosh; Intel Mac OS X 10_15_7) AppleWebKit/537.36 (KHTML, like Gecko) Chrome/123.0.0.0 Safari/537.36" version="24.2.1" etag="B-ejO6RjMgvn4J5Yc7DD" type="github">
  <diagram name="페이지-1" id="iLDZ4m0QjkktzmONA5vM">
    <mxGraphModel>
      <root>
        <mxCell id="0" />
        <mxCell id="1" parent="0" />
      </root>
    </mxGraphModel>
  </diagram>
</mxfile>
